PathFileType	4	(X/Y/Z)	C:/Users/opensim2020/Desktop/walking_exp_matlab/subject03_walking12_straight_04.trc																																																																																																																																														
DataRate	CameraRate	NumFrames	NumMarkers	Units	OrigDataRate	OrigDataStartFrame	OrigNumFrames																																																																																																																																										
100	100	4	48	mm	100	2297	202																																																																																																																																										
Frame#	Time	LFHD			RFHD			LBHD			RBHD			C7			T10			CLAV			STRN			RBAK			LSHO			LUPA			LELB			LFRM			LWRA			LWRB			LFIN			RSHO			RUPA			RELB			RFRM			RWRA			RWRB			RFIN			LASI			RASI			LPSI			RPSI			LTHI			LKNE			LTIB			LANK			LHEE			LTOE			RTHI			RKNE			RTIB			RANK			RHEE			RTOE			*39			*40			*41			*42			*43			*44			*45			*46			*47		
		X1	Y1	Z1	X2	Y2	Z2	X3	Y3	Z3	X4	Y4	Z4	X5	Y5	Z5	X6	Y6	Z6	X7	Y7	Z7	X8	Y8	Z8	X9	Y9	Z9	X10	Y10	Z10	X11	Y11	Z11	X12	Y12	Z12	X13	Y13	Z13	X14	Y14	Z14	X15	Y15	Z15	X16	Y16	Z16	X17	Y17	Z17	X18	Y18	Z18	X19	Y19	Z19	X20	Y20	Z20	X21	Y21	Z21	X22	Y22	Z22	X23	Y23	Z23	X24	Y24	Z24	X25	Y25	Z25	X26	Y26	Z26	X27	Y27	Z27	X28	Y28	Z28	X29	Y29	Z29	X30	Y30	Z30	X31	Y31	Z31	X32	Y32	Z32	X33	Y33	Z33	X34	Y34	Z34	X35	Y35	Z35	X36	Y36	Z36	X37	Y37	Z37	X38	Y38	Z38	X39	Y39	Z39	X40	Y40	Z40	X41	Y41	Z41	X42	Y42	Z42	X43	Y43	Z43	X44	Y44	Z44	X45	Y45	Z45	X46	Y46	Z46	X47	Y47	Z47	X48	Y48	Z48
																																																																																																																																																	
152	1.51	538.72913	1601.7478	-1473.18066	504.18588	1603.08252	-1344.2843	412.41321	1563.90417	-1503.14636	382.82129	1564.20264	-1375.66931	362.42831	1396.31421	-1440.47083	343.76514	1079.13464	-1434.83484	487.80121	1325.30298	-1432.61499	538.31219	1162.97461	-1430.48889	314.49133	1218.46106	-1338.90112	441.6376	1357.25952	-1592.41895	403.58636	1160.71594	-1659.29004	389.67966	1038.15063	-1672.47168	381.61292	907.43787	-1678.13843	359.95331	785.8877	-1652.17407	344.34204	801.61102	-1705.24133	296.79218	726.01221	-1690.05164	433.22812	1351.91016	-1275.10168	475.20639	1139.65906	-1191.86145	521.72638	1038.96594	-1177.26318	601.16003	929.20996	-1182.69824	674.74713	868.73285	-1223.60303	650.33209	842.224	-1184.0752	711.73071	805.3175	-1192.11926	531.68243	928.67426	-1536.2511	499.05951	918.27936	-1300.09888	362.75266	939.4176	-1511.72974	344.16129	946.76703	-1362.30249	561.64471	636.94879	-1589.55823	618.5484	475.27747	-1543.48596	622.66656	277.31979	-1551.39038	660.10925	70.82067	-1521.4231	620.9812	34.32162	-1487.14465	808.48151	43.59939	-1482.95093	390.48019	632.82593	-1264.90576	360.72375	454.33371	-1295.78613	233.83403	304.1434	-1292.63782	103.8404	130.60014	-1336.95789	49.71855	123.0461	-1386.40002	211.56467	35.18167	-1356.02563	NaN	NaN	NaN	NaN	NaN	NaN	NaN	NaN	NaN	NaN	NaN	NaN	NaN	NaN	NaN	NaN	NaN	NaN	NaN	NaN	NaN	NaN	NaN	NaN	NaN	NaN	NaN
153	1.52	552.60205	1603.07153	-1473.32422	517.37317	1604.16199	-1344.61072	426.49579	1565.27319	-1504.14282	396.25162	1565.31519	-1376.87634	376.74564	1397.44556	-1441.92712	358.66418	1080.00671	-1435.25183	502.09146	1326.729	-1433.79456	553.16974	1164.56958	-1431.55786	328.98007	1218.72681	-1340.44653	456.04553	1358.76001	-1593.69739	418.50443	1162.22839	-1660.9657	404.19891	1039.74292	-1674.00159	395.01761	909.10461	-1679.79199	371.63724	787.70459	-1654.2373	357.28055	803.42566	-1707.61108	306.36523	729.65381	-1692.22009	446.73868	1352.95923	-1276.22571	487.94308	1140.32458	-1193.41296	533.94342	1039.51392	-1178.7854	613.79883	930.2431	-1184.25244	688.13318	870.76318	-1224.81042	663.35571	843.46857	-1186.07397	725.66333	807.45605	-1193.63147	547.08508	930.72528	-1537.34045	515.28131	918.41602	-1301.66846	378.26929	941.45337	-1512.24976	360.25443	947.49884	-1362.39355	576.17114	639.64703	-1590.91016	632.6825	478.11365	-1544.58276	633.1488	278.39133	-1552.97742	663.3938	70.6507	-1521.90881	622.91101	35.31689	-1487.96948	812.48071	41.34808	-1484.22156	408.09119	632.3064	-1265.57458	379.49576	453.63019	-1295.57739	247.39107	307.3851	-1292.92029	112.09003	138.76283	-1337.14465	58.61736	134.04752	-1387.20679	212.85922	35.39585	-1356.32642	NaN	NaN	NaN	NaN	NaN	NaN	NaN	NaN	NaN	NaN	NaN	NaN	NaN	NaN	NaN	NaN	NaN	NaN	NaN	NaN	NaN	NaN	NaN	NaN	NaN	NaN	NaN
154	1.53	566.49353	1604.75549	-1473.51514	530.45416	1605.37329	-1345.01892	440.65692	1566.84875	-1505.14819	409.65158	1566.58997	-1378.0564	390.39606	1398.69495	-1443.43176	373.63712	1081.05811	-1436.14832	516.23157	1328.36292	-1434.85425	568.12738	1166.56238	-1432.74768	343.26733	1219.67468	-1342.16626	470.48672	1360.61328	-1594.85388	433.95663	1164.00439	-1662.38611	419.23016	1041.62793	-1675.39783	409.11798	911.0769	-1681.27698	384.46539	789.79315	-1656.15979	371.14371	805.57922	-1709.8418	317.92044	732.97455	-1694.65466	460.30527	1354.30029	-1277.41333	500.63864	1141.21436	-1195.03271	546.05341	1040.2998	-1180.43384	625.95935	931.18616	-1185.87939	701.04968	872.42639	-1226.02161	675.70642	844.4101	-1187.99854	737.86884	808.65881	-1195.32605	562.6076	933.11536	-1538.11255	531.38239	919.00507	-1302.8562	393.90439	943.66833	-1512.61096	376.26709	948.39856	-1362.69958	589.16547	641.60309	-1592.41101	646.81567	479.97305	-1545.74731	642.6496	279.23892	-1555.04358	664.53131	70.69635	-1521.50183	623.70477	35.82975	-1488.15698	814.58887	40.02661	-1485.78442	426.47842	631.67267	-1266.22864	400.1171	452.75397	-1294.97656	262.90305	310.76013	-1292.85583	122.38984	147.1178	-1337.86609	70.2251	145.9657	-1389.08191	214.95503	36.01929	-1356.81079	NaN	NaN	NaN	NaN	NaN	NaN	NaN	NaN	NaN	NaN	NaN	NaN	NaN	NaN	NaN	NaN	NaN	NaN	NaN	NaN	NaN	NaN	NaN	NaN	NaN	NaN	NaN
155	1.54	580.36548	1606.50208	-1473.60498	543.63788	1606.80591	-1345.46753	454.84741	1568.67688	-1505.91968	423.03171	1568.0553	-1379.17041	404.89868	1399.93066	-1444.57922	388.30319	1082.40857	-1437.34692	530.41632	1330.33765	-1436.02551	582.8797	1168.61743	-1433.88843	358.10928	1220.6217	-1343.65405	485.04904	1362.89343	-1596.00073	449.60046	1166.00732	-1663.83057	434.49905	1043.6886	-1676.69727	423.91855	913.24048	-1682.73242	398.3555	791.99719	-1657.82983	385.93857	807.84436	-1711.8429	331.34485	735.74158	-1697.29065	473.96188	1355.93774	-1278.69287	513.36987	1142.38879	-1196.73279	558.07141	1041.28455	-1182.22034	637.85565	932.03473	-1187.50305	713.12872	873.44159	-1227.21033	687.33582	845.05579	-1189.86035	749.46033	809.08612	-1196.86365	577.62378	935.62885	-1538.82092	547.19159	920.18433	-1304.25928	408.98645	946.20056	-1513.09253	392.34039	949.39008	-1363.10791	600.91693	642.73065	-1593.97937	660.27844	480.82889	-1547.04114	650.534	280.04861	-1557.16406	665.0614	70.87627	-1521.62061	624.4649	35.44613	-1488.54443	815.117	38.97001	-1484.81921	445.68518	631.12457	-1266.81238	422.45837	451.7121	-1294.10242	280.57184	314.18375	-1292.88745	135.31705	155.80891	-1338.46558	84.55276	158.40161	-1391.32275	216.81754	36.67316	-1357.36841	NaN	NaN	NaN	NaN	NaN	NaN	NaN	NaN	NaN	NaN	NaN	NaN	NaN	NaN	NaN	NaN	NaN	NaN	NaN	NaN	NaN	NaN	NaN	NaN	NaN	NaN	NaN
